<svg xmlns="http://www.w3.org/2000/svg" xmlns:xlink="http://www.w3.org/1999/xlink" width="2000" zoomAndPan="magnify" viewBox="0 0 1500 1499.999933" height="2000" preserveAspectRatio="xMidYMid meet" version="1.0"><defs><clipPath id="74670c75c6"><path d="M 107 109.089844 L 1387 109.089844 L 1387 1387 L 107 1387 Z M 107 109.089844 " clip-rule="nonzero"/></clipPath><clipPath id="d8867253f2"><path d="M 45 697 L 1452 697 L 1452 796 L 45 796 Z M 45 697 " clip-rule="nonzero"/></clipPath><clipPath id="5739d34dff"><path d="M 107 109.089844 L 560 109.089844 L 560 1387 L 107 1387 Z M 107 109.089844 " clip-rule="nonzero"/></clipPath><clipPath id="9a36074951"><path d="M 45 697 L 747 697 L 747 796 L 45 796 Z M 45 697 " clip-rule="nonzero"/></clipPath><clipPath id="001b6ee327"><path d="M 296.617188 312 L 1334 312 L 1334 1307.105469 L 296.617188 1307.105469 Z M 296.617188 312 " clip-rule="nonzero"/></clipPath></defs><g clip-path="url(#74670c75c6)"><path fill="#3dffff" d="M 107.300781 156.484375 C 107.300781 129.320312 129.324219 107.296875 156.488281 107.296875 L 510.628906 107.296875 C 537.792969 107.296875 559.8125 129.320312 559.8125 156.484375 C 559.8125 183.648438 537.792969 205.667969 510.628906 205.667969 L 205.675781 205.667969 L 205.675781 510.625 C 205.675781 537.789062 183.652344 559.808594 156.488281 559.808594 C 129.324219 559.808594 107.300781 537.789062 107.300781 510.625 Z M 933.628906 156.484375 C 933.628906 129.320312 955.648438 107.296875 982.8125 107.296875 L 1336.953125 107.296875 C 1364.117188 107.296875 1386.140625 129.320312 1386.140625 156.484375 L 1386.140625 510.625 C 1386.140625 537.789062 1364.117188 559.808594 1336.953125 559.808594 C 1309.789062 559.808594 1287.765625 537.789062 1287.765625 510.625 L 1287.765625 205.667969 L 982.8125 205.667969 C 955.648438 205.667969 933.628906 183.648438 933.628906 156.484375 Z M 156.488281 933.625 C 183.652344 933.625 205.675781 955.644531 205.675781 982.808594 L 205.675781 1287.761719 L 510.628906 1287.761719 C 537.792969 1287.761719 559.8125 1309.785156 559.8125 1336.949219 C 559.8125 1364.113281 537.792969 1386.132812 510.628906 1386.132812 L 156.488281 1386.132812 C 129.324219 1386.132812 107.300781 1364.113281 107.300781 1336.949219 L 107.300781 982.808594 C 107.300781 955.644531 129.324219 933.625 156.488281 933.625 Z M 1336.953125 933.625 C 1364.117188 933.625 1386.140625 955.644531 1386.140625 982.808594 L 1386.140625 1336.949219 C 1386.140625 1364.113281 1364.117188 1386.132812 1336.953125 1386.132812 L 982.8125 1386.132812 C 955.648438 1386.132812 933.628906 1364.113281 933.628906 1336.949219 C 933.628906 1309.785156 955.648438 1287.761719 982.8125 1287.761719 L 1287.765625 1287.761719 L 1287.765625 982.808594 C 1287.765625 955.644531 1309.789062 933.625 1336.953125 933.625 Z M 1336.953125 933.625 " fill-opacity="1" fill-rule="evenodd"/></g><g clip-path="url(#d8867253f2)"><path fill="#ffffff" d="M 41.722656 746.714844 C 41.722656 719.550781 63.742188 697.53125 90.90625 697.53125 L 1402.535156 697.53125 C 1429.699219 697.53125 1451.722656 719.550781 1451.722656 746.714844 C 1451.722656 773.878906 1429.699219 795.902344 1402.535156 795.902344 L 90.90625 795.902344 C 63.742188 795.902344 41.722656 773.878906 41.722656 746.714844 Z M 41.722656 746.714844 " fill-opacity="1" fill-rule="evenodd"/></g><g clip-path="url(#5739d34dff)"><path fill="#3dffff" d="M 156.488281 107.296875 C 129.324219 107.296875 107.300781 129.320312 107.300781 156.484375 L 107.300781 510.625 C 107.300781 537.789062 129.324219 559.808594 156.488281 559.808594 C 183.652344 559.808594 205.675781 537.789062 205.675781 510.625 L 205.675781 205.667969 L 510.628906 205.667969 C 537.792969 205.667969 559.8125 183.648438 559.8125 156.484375 C 559.8125 129.320312 537.792969 107.296875 510.628906 107.296875 Z M 205.675781 982.808594 C 205.675781 955.644531 183.652344 933.625 156.488281 933.625 C 129.324219 933.625 107.300781 955.644531 107.300781 982.808594 L 107.300781 1336.949219 C 107.300781 1364.113281 129.324219 1386.132812 156.488281 1386.132812 L 510.628906 1386.132812 C 537.792969 1386.132812 559.8125 1364.113281 559.8125 1336.949219 C 559.8125 1309.785156 537.792969 1287.761719 510.628906 1287.761719 L 205.675781 1287.761719 Z M 205.675781 982.808594 " fill-opacity="1" fill-rule="evenodd"/></g><g clip-path="url(#9a36074951)"><path fill="#ffffff" d="M 746.722656 697.53125 L 746.722656 795.902344 L 90.90625 795.902344 C 63.742188 795.902344 41.722656 773.878906 41.722656 746.714844 C 41.722656 719.550781 63.742188 697.53125 90.90625 697.53125 Z M 746.722656 697.53125 " fill-opacity="1" fill-rule="evenodd"/></g><g clip-path="url(#001b6ee327)"><path fill="#ffffff" d="M 1322.050781 1239.378906 L 1095.03125 1012.359375 C 1147.972656 939.566406 1179.253906 850.058594 1179.253906 753.367188 C 1179.253906 510.023438 981.277344 312.050781 737.933594 312.050781 C 494.589844 312.050781 296.617188 510.023438 296.617188 753.367188 C 296.617188 996.710938 494.589844 1194.6875 737.933594 1194.6875 C 855.976562 1194.6875 963.335938 1148.097656 1042.609375 1072.347656 L 1265.84375 1295.585938 C 1273.605469 1303.34375 1283.777344 1307.226562 1293.949219 1307.226562 C 1304.117188 1307.226562 1314.289062 1303.34375 1322.050781 1295.585938 C 1337.570312 1280.0625 1337.570312 1254.898438 1322.050781 1239.378906 Z M 737.933594 1115.195312 C 538.421875 1115.195312 376.105469 952.882812 376.105469 753.367188 C 376.105469 553.855469 538.421875 391.539062 737.933594 391.539062 C 937.449219 391.539062 1099.761719 553.855469 1099.761719 753.367188 C 1099.761719 952.882812 937.449219 1115.195312 737.933594 1115.195312 Z M 737.933594 1115.195312 " fill-opacity="1" fill-rule="nonzero"/></g></svg>